<svg width="40" height="40" viewBox="0 0 40 40" fill="none" xmlns="http://www.w3.org/2000/svg">
<circle cx="20" cy="20" r="20" fill="#FFBC00"/>
<path d="M14.2222 29.875C13.0667 29.875 11.9111 28.7813 11.3333 28.3125C8.44444 26.125 7.57778 25.3438 7 24.875V31.4375C7 32.3003 7.64684 33 8.44444 33H20C20.7976 33 21.4444 32.3003 21.4444 31.4375V24.875C20.8667 25.3438 20 26.125 17.1111 28.3125C16.5333 28.7813 15.3778 29.875 14.2222 29.875ZM20 20.5H8.44444C7.64684 20.5 7 21.1997 7 22.0625V22.8438C8.15556 23.7813 8.01111 23.7812 12.2 27.0625C12.6333 27.375 13.5 28.3125 14.2222 28.3125C14.9444 28.3125 15.8111 27.375 16.2444 27.2188C20.4333 23.9375 20.2889 23.9375 21.4444 23V22.0625C21.4444 21.1997 20.7976 20.5 20 20.5ZM31.5556 15.8125H17.1111C16.3135 15.8125 15.6667 16.5122 15.6667 17.375V18.9375H20C21.4991 18.9375 22.735 20.1787 22.8758 21.7607L22.8889 21.75V28.3125H31.5556C32.3532 28.3125 33 27.6128 33 26.75V17.375C33 16.5122 32.3532 15.8125 31.5556 15.8125ZM30.1111 22.0625H27.2222V18.9375H30.1111V22.0625ZM14.2222 17.375C14.2222 15.6519 15.5182 14.25 17.1111 14.25H27.2222V9.5625C27.2222 8.69971 26.5754 8 25.7778 8H11.3333C10.5357 8 9.88889 8.69971 9.88889 9.5625V18.9375H14.2222V17.375Z" fill="black"/>
</svg>
