<svg width="40" height="40" viewBox="0 0 40 40" fill="none" xmlns="http://www.w3.org/2000/svg">
<circle cx="20" cy="20" r="20" fill="#FFBC00"/>
<path d="M28 24.6406C28 24.526 27.9896 24.4427 27.9688 24.3906C27.9479 24.3385 27.8542 24.2526 27.6875 24.1328C27.5208 24.013 27.3099 23.8828 27.0547 23.7422C26.7995 23.6016 26.5521 23.4635 26.3125 23.3281C26.0729 23.1927 25.8359 23.0625 25.6016 22.9375C25.3672 22.8125 25.2188 22.7344 25.1562 22.7031C25.1042 22.6719 25.0052 22.6042 24.8594 22.5C24.7135 22.3958 24.5833 22.3177 24.4688 22.2656C24.3542 22.2135 24.2448 22.1875 24.1406 22.1875C23.9844 22.1875 23.7943 22.2943 23.5703 22.5078C23.3464 22.7214 23.1406 22.9557 22.9531 23.2109C22.7656 23.4661 22.5651 23.7005 22.3516 23.9141C22.138 24.1276 21.9635 24.2344 21.8281 24.2344C21.7552 24.2344 21.6693 24.2161 21.5703 24.1797C21.4714 24.1432 21.3906 24.1094 21.3281 24.0781C21.2656 24.0469 21.1771 23.9974 21.0625 23.9297C20.9479 23.862 20.875 23.8177 20.8438 23.7969C19.8125 23.224 18.9271 22.5651 18.1875 21.8203C17.4479 21.0755 16.7865 20.1875 16.2031 19.1562C16.1823 19.125 16.138 19.0521 16.0703 18.9375C16.0026 18.8229 15.9531 18.7344 15.9219 18.6719C15.8906 18.6094 15.8568 18.5286 15.8203 18.4297C15.7839 18.3307 15.7656 18.2448 15.7656 18.1719C15.7656 18.0365 15.8724 17.862 16.0859 17.6484C16.2995 17.4349 16.5339 17.2344 16.7891 17.0469C17.0443 16.8594 17.2786 16.6536 17.4922 16.4297C17.7057 16.2057 17.8125 16.0156 17.8125 15.8594C17.8125 15.7552 17.7865 15.6458 17.7344 15.5312C17.6823 15.4167 17.6042 15.2865 17.5 15.1406C17.3958 14.9948 17.3281 14.8958 17.2969 14.8438C17.2656 14.7812 17.1875 14.6328 17.0625 14.3984C16.9375 14.1641 16.8073 13.9271 16.6719 13.6875C16.5365 13.4479 16.3984 13.2005 16.2578 12.9453C16.1172 12.6901 15.987 12.4792 15.8672 12.3125C15.7474 12.1458 15.6615 12.0521 15.6094 12.0312C15.5573 12.0104 15.474 12 15.3594 12C14.8594 12 14.3333 12.1146 13.7812 12.3438C13.3021 12.5625 12.8854 13.0547 12.5312 13.8203C12.1771 14.5859 12 15.2656 12 15.8594C12 16.026 12.013 16.2031 12.0391 16.3906C12.0651 16.5781 12.0911 16.737 12.1172 16.8672C12.1432 16.9974 12.1901 17.1693 12.2578 17.3828C12.3255 17.5964 12.3776 17.75 12.4141 17.8438C12.4505 17.9375 12.5156 18.1094 12.6094 18.3594C12.7031 18.6094 12.7604 18.7656 12.7812 18.8281C13.4062 20.5365 14.5339 22.2057 16.1641 23.8359C17.7943 25.4661 19.4635 26.5938 21.1719 27.2188C21.2344 27.2396 21.3906 27.2969 21.6406 27.3906C21.8906 27.4844 22.0625 27.5495 22.1562 27.5859C22.25 27.6224 22.4036 27.6745 22.6172 27.7422C22.8307 27.8099 23.0026 27.8568 23.1328 27.8828C23.263 27.9089 23.4219 27.9349 23.6094 27.9609C23.7969 27.987 23.974 28 24.1406 28C24.7344 28 25.4141 27.8229 26.1797 27.4688C26.9453 27.1146 27.4375 26.6979 27.6562 26.2188C27.8854 25.6667 28 25.1406 28 24.6406ZM32 12.5V27.5C32 28.7396 31.5599 29.7995 30.6797 30.6797C29.7995 31.5599 28.7396 32 27.5 32H12.5C11.2604 32 10.2005 31.5599 9.32031 30.6797C8.4401 29.7995 8 28.7396 8 27.5V12.5C8 11.2604 8.4401 10.2005 9.32031 9.32031C10.2005 8.4401 11.2604 8 12.5 8H27.5C28.7396 8 29.7995 8.4401 30.6797 9.32031C31.5599 10.2005 32 11.2604 32 12.5Z" fill="black"/>
</svg>
